<svg xmlns="http://www.w3.org/2000/svg" width="574" height="60" viewBox="0 0 574 60">
    <g fill="#FFF" fill-rule="evenodd">
        <path d="M36.493 31.464c0 12.9-5.025 20.937-14.533 23.245a55.067 55.067 0 0 1-5.916.305H11.16V8.43h2.558c3.683 0 7.064.26 10.048.774 8.444 2.457 12.726 9.946 12.726 22.259m6.713-15.122c-3.463-5.628-9.38-9.12-17.543-10.372-3.814-.728-8.165-1.081-13.301-1.081H2v53.665h13.914c4.589 0 8.738-.462 12.294-1.365 6.396-1.397 11.25-4.476 14.42-9.142l.2-.287c2.86-4.165 4.312-9.54 4.312-15.973 0-6.225-1.324-11.422-3.934-15.445M153.657 4.22v28.69c0 13.65-7.093 22.13-18.51 22.13-14.57 0-16.143-15.546-16.143-22.228V4.315h-9.16v27.607c0 17.441 8.75 26.658 25.303 26.658 13.602 0 22.052-9.86 22.052-25.734V4.22h-3.542zM266.925 4.89v39.27l-35.7-39.27h-6.867v53.665h3.542V14.498l37.274 40.895 2.717 3.162h2.575V4.89zM351.102 55.015h-4.884V8.431h2.559c3.683 0 7.064.261 10.048.774 8.444 2.456 12.726 9.946 12.726 22.26 0 12.901-5.025 20.937-14.534 23.244a55.22 55.22 0 0 1-5.915.306m27.238-38.552c-3.454-5.699-9.396-9.232-17.623-10.494-3.815-.726-8.165-1.08-13.298-1.08h-10.361v53.666h13.914c4.586 0 8.734-.462 12.293-1.365 6.4-1.399 11.258-4.482 14.43-9.155l.198-.288c2.856-4.16 4.304-9.53 4.304-15.96 0-6.164-1.298-11.32-3.857-15.324M453.488 34.28l6.577-15.966 6.5 15.966h-13.077zM462.96 2l-23.232 56.555h3.818l8.493-20.734h15.97l8.44 20.734h9.588L462.96 2zM557.568 23.803c-4.929-2.855-9.187-5.32-9.187-8.94 0-4.104 4.006-7.57 8.747-7.57 5.702 0 7.827 2.794 8.847 4.136l.957 1.228 1.91-1.619.732-.744-.563-.86c-1.118-1.71-4.492-5.682-11.66-5.682h-.038c-6.124.012-15.233 4.3-15.233 16.061 0 8.128 7.201 12.507 13.553 16.37 5.062 3.076 9.843 5.983 9.843 10.117 0 4.35-2.946 8.738-9.527 8.738-5.453 0-10.086-4.735-10.133-4.783l-.773-.803-2.769 2.446.866.875c.588.594 5.947 5.807 12.885 5.807 9.575 0 16.524-6.774 16.524-16.109 0-9.99-8.306-14.802-14.98-18.668"/>
    </g>
</svg>
